<?xml version="1.0" encoding="UTF-8"?>
<svg id="Layer_2" data-name="Layer 2" xmlns="http://www.w3.org/2000/svg" viewBox="0 0 123 16.44">
  <defs>
    <style>
      .cls-1 {
        fill: #00f0ff;
      }

      .cls-2 {
        fill: #fff;
      }
    </style>
  </defs>
  <g id="Layer_1-2" data-name="Layer 1">
    <g>
      <path class="cls-2" d="M14.9,14.24h-2v2.2H2.2v-2H0V3.64H2V1.44H12.8V3.44h2.1V14.24Zm-4.2,0V3.64H4.3V14.34h6.4v-.1Zm22.2,0h-2v2.2h-10.7v-2h-2.2V3.64h2V1.44h10.8V3.44h2.1s0,10.8,0,10.8Zm-4.3,0V3.64h-6.4V14.34h6.4v-.1Zm22.3,2.2h-4.2v-6.4h-2.1v2.1h-2.2v-2.1h-2.1v6.4h-4.3V1.44h4.2V3.44h2.2v2.2h2V3.54h2.2V1.44h4.3v15Zm18-6.5h-2v2.2h-8.6v4.3h-4.3V1.44h12.8V3.44h2.1v6.5Zm-4.2,0V3.64h-6.4v6.4h6.4v-.1Zm22.2,6.5h-4.2v-6.4h-6.4v6.4h-4.3V1.44h4.2V7.84h6.4V1.44h4.3v15Z"/>
      <path class="cls-1" d="M104.9,10.04h-2.1v2.1h-2.1v2.1h-2.2v2.2h-2.2v-2h-2.2v-2.2h-2.1v-2.2h-2V1.44h4.2V7.74h2.2v2.2h2v-2.1h2.2V1.44h4.3s0,8.6,0,8.6Zm18.1,4.2h-2.1v2.2h-10.7v-2h-2.2v-2.2h4.2v2h6.5v-4.2h-6.5v-2.1h2.1v-2.3h2.2V3.64h-6.4V1.44h12.9V3.54h-2.1v2.1h-2.2v2.1h2v2.2h2.3s0,4.3,0,4.3Z"/>
    </g>
  </g>
</svg>